<svg width="16" height="16" viewBox="0 0 16 16" fill="none" xmlns="http://www.w3.org/2000/svg">
<g id="Leading icon">
<path id="Vector" fill-rule="evenodd" clip-rule="evenodd" d="M8.47136 2.86189C8.73171 3.12224 8.73171 3.54435 8.47136 3.8047L4.2761 7.99996L8.47136 12.1952C8.73171 12.4556 8.73171 12.8777 8.47136 13.138C8.21101 13.3984 7.7889 13.3984 7.52855 13.138L2.86189 8.47136C2.60154 8.21101 2.60154 7.7889 2.86189 7.52855L7.52855 2.86189C7.7889 2.60154 8.21101 2.60154 8.47136 2.86189Z" fill="white"/>
<path id="Vector_2" fill-rule="evenodd" clip-rule="evenodd" d="M2.66663 8.00004C2.66663 7.63185 2.9651 7.33337 3.33329 7.33337H12.6666C13.0348 7.33337 13.3333 7.63185 13.3333 8.00004C13.3333 8.36823 13.0348 8.66671 12.6666 8.66671H3.33329C2.9651 8.66671 2.66663 8.36823 2.66663 8.00004Z" fill="white"/>
</g>
</svg>
